<?xml version="1.0" encoding="utf-8"?>
<!-- Generator: Adobe Illustrator 19.0.0, SVG Export Plug-In . SVG Version: 6.00 Build 0)  -->
<svg version="1.1" id="layer" xmlns="http://www.w3.org/2000/svg" xmlns:xlink="http://www.w3.org/1999/xlink" x="0px" y="0px"
	 viewBox="-153 -46 652 652" style="enable-background:new -153 -46 652 652;" xml:space="preserve">
<style type="text/css">
	.st0{fill:#3E1586;}
</style>
<path class="st0" d="M53.2,516.1c0,5.4-3.3,9.4-9.6,9.4c-6.3,0-9.6-4-9.6-9.4v-14h5v13.9c0,2.8,1.9,4.9,4.6,4.9
	c2.6,0,4.6-2.1,4.6-4.9v-13.9h5V516.1z M65.3,524.9h5v-16.3h0.1l9.9,16.3h6.6v-22.9h-5V518h0l-9.7-15.9h-6.8V524.9z M100.2,524.9
	h5.1v-22.9h-5.1V524.9z M124.8,524.9h4l9.5-22.9h-5.4l-5.7,15H127l-5.6-15h-5.7L124.8,524.9z M147.9,524.9h16.1v-4.7H153v-4.7h9.9
	V511H153v-4.3h10.5v-4.6h-15.5V524.9z M181.2,506.3h3.3c1.9,0,3.9,0.4,3.9,2.7c0,2.5-2.4,2.6-4.2,2.6h-3V506.3z M176.2,524.9h5v-9.1
	h2.5l4.7,9.1h6l-5.8-9.7c3.3-0.6,4.9-3.1,4.9-6.3c0-5.3-4-6.9-8.6-6.9h-8.8V524.9z M220.1,503.9c-1.9-1.7-4.4-2.4-7-2.4
	c-4.5,0-8.7,2.5-8.7,7.4c0,7.6,10.7,5.4,10.7,9.6c0,1.6-1.9,2.4-3.5,2.4c-1.7,0-3.3-0.8-4.4-2.2l-3.6,3.9c2.1,2,4.8,2.9,7.7,2.9
	c4.7,0,8.8-2.4,8.8-7.5c0-8-10.5-5.3-10.5-9.5c0-1.7,2-2.4,3.4-2.4c1.2,0,2.8,0.5,3.7,1.5L220.1,503.9z M232.5,524.9h5v-22.9h-5
	V524.9z M254.8,524.9h5v-18.4h6.5v-4.4h-18.1v4.4h6.5V524.9z M282.6,524.9h5v-9.7l8.6-13.1h-6l-5.1,8.5l-4.8-8.5H274l8.6,13.1V524.9
	z M13.6,476.6h8.1v-38.1h13.9v-7.3H-0.4v7.3h13.9V476.6z M72.4,470.4c-9.4,0-15.6-7.2-15.6-16.9c0-9.1,6.2-16.3,15.6-16.3
	c9.4,0,15.7,7.2,15.7,16.3C88,463.2,81.8,470.4,72.4,470.4 M72.3,430c-14,0-24,9.5-24,24.1c0,14.2,10,23.7,24,23.7
	c14.2-0.3,24.2-9.8,24.2-24C96.5,439.2,86.5,429.7,72.3,430 M113.9,476.6h8.1v-20h21.3v20h8.1v-45.5h-8.1v18.1h-21.3v-18.1h-8.1
	V476.6z M192.7,470.4c-9.4,0-15.6-7.2-15.6-16.9c0-9.1,6.2-16.3,15.6-16.3c9.4,0,15.7,7.2,15.7,16.3
	C208.4,463.2,202.2,470.4,192.7,470.4 M192.7,430c-14,0-24,9.5-24,24.1c0,14.2,10,23.7,24,23.7c14.2-0.3,24.2-9.8,24.2-24
	C216.9,439.2,206.9,429.7,192.7,430 M234.2,476.6h8.1v-22.3h0.5l19.7,22.3h11.4l-22.7-24.5l21.3-21h-10.9l-18.8,19.3h-0.4v-19.3
	h-8.1V476.6z M324.3,431.2h-8.1v28.5c0,4.5-2.4,10.4-10.2,10.4c-7.8,0-10.2-5.9-10.2-10.4v-28.5h-8.1v28.8c0,11,7.9,17.9,18.3,17.9
	c10.4,0,18.3-6.9,18.3-17.9V431.2z"/>
<path class="st0" d="M14.9,134.6c-1.5,3.7-7.7,8.3-7.7,16.3c0,1.4,1,2.7,2.1,2.7c3.5,0,5.5-9,5.9-13.9l1.4-0.9c0.2,3.2,2.6,5,5,5
	c3.4,0,6.2-2.7,6.2-7c0-2-1-3.4-3-3.3c-2.3,0.2-6.2,2.4-7.1,0.1c0-5,1.6-11.1,4.8-17.9h-2.2C17.3,121.5,15.4,128.8,14.9,134.6
	 M322.6,177.4c-2.2-5.1-5.1-8.8-6.4-10.9c-0.5-3.5,2.5-7.8,2.5-13.2c0-3.4-1.7-5.9-4-5.9c-5.5,0-5.4,9.2-0.9,17l-0.7,0.5
	c-2.2-2.4-5.5-4.8-9.4-4.8c-3.6,0-5.6,2.3-5.6,5.1c0,2.3,1.6,5.1,6.4,5.1c4.4,0,6.8-3.1,10.4-2.3c2.7,3.2,4.3,6.4,6.3,10.4l-0.9,0.8
	c-2.8-2.6-5.7-4.6-10-4.6c-3.3,0-5.9,2.4-5.9,5.7c0,5.3,5.7,5.7,10.1,4c2.7-1.1,6.9-2.3,8.5-1.3c1.5,2.2,3.7,7.6,5,11.9l-1,0.7
	c-3.2-3.8-7-4.9-10.3-4.9c-4.3,0-7.3,2.4-7.3,6.1c0,4.2,4,6.3,8,6.3c6.1,0,10.1-3.4,11.9-2.5c0.7,2.5,0.8,1.9,2.4,9.5l2.2-0.4
	c-0.6-3.7-1.2-6.3-2.2-9.8c0-1.2,1.4-2.8,2.5-4.3c5-7.1,5.6-16.5,0.6-16.5c-4.5,0-4.7,8.8-4.1,14.5l-1,0.4c-1-3.5-3.8-10.2-4.6-12.4
	c0.7-2,1.4-2.7,2.9-6.2c3-7,3-14-1.1-14c-4.1,0-5,9.4-3.3,15.6L322.6,177.4z M77.4,232.4c9.7,12.6,5,21.1-2.3,21.1
	c-5,0-7.1-4.3-7.1-7.8c0-6.5,6.4-13.5,6.6-17.1c-1.7-2.8-5.5-9.1-7.5-14.1l-1,0.6c1.2,10.2-0.8,18.6-8.8,18.6
	c-3.5,0-7.1-3.6-7.1-8.2c0-11,13.1-14.2,12.4-20.4c-1.6-3.4-4.3-10.8-5.5-16.2l-1.3,0.2c-0.2,10.8-3.5,19.6-10.2,19.6
	c-4.3,0-8.2-3.1-8.2-9.2c0-5.5,4.7-11.2,9.2-15.1c4.9-4.5,6.4-6.2,7.3-10.2c-0.7-6.7-0.6-12.5-0.4-19l-1.6-0.1
	c-1.6,9.2-7,20.8-16,17.9c-3.8-1.2-5.4-4.6-5.4-8.7c0-6.6,4.8-13.9,16.3-18.9c3.3-1.5,5.5-3,6.7-5.9c1-9.1,2.5-14.1,4.3-20.8
	l-1.5-0.3C50.7,132.5,44.4,137,37.9,137c-3.5,0-6.3-2.1-7.1-4.4c-2.9-7.4,5-14.4,14.2-18.2c6.3-2.6,12.6-4.1,16.1-7.8
	c2-5.5,4.7-11.3,4.9-11.6l2.5,1.2c-0.2,0.2-3,7.1-3.9,10.5c1.6,4.1,10.5,5.9,16.5,11.4c8.5,7.6,2.3,18.8-5.9,18.8
	c-8.8,0-13.1-8.9-13-17.3l-1.4-0.2c-1.6,6.1-3.3,12.2-3.9,19.8c2.1,6.7,15.8,6.1,22,13.8c5.8,7.3,0.3,16.9-7,16.9
	c-9.2,0-12.8-9.9-14.1-14.8l-1.6,0.2c-0.2,5.3-0.2,12.8,0.6,18.6c2.1,3.1,7.3,3.6,12.4,4.3c10.2,1.5,13.9,5.7,13.9,10.9
	c0,4.6-3.3,9.1-8,9.1c-5.3,0-10.9-3.3-14.4-10.3l-1.3,0.5c0.6,3,3.4,12.4,5.3,15.8c3.9,2.7,10.6,0.2,15.7,0.2
	c5.1,0,10.5,2.3,10.5,8.2c0,3.9-2.9,7.9-7.6,7.9c-4.3,0-10.7-4-13.1-7.6l-1.1,0.7c1.5,3.4,4.9,10.2,7.2,13.6c7.2,1,8.7-2.6,15.2-2.6
	c3.1,0,7.7,2.1,7.7,7.1c0,3.3-3.2,7.2-7.7,7.2c-5.8,0-10-4.5-12.7-7.6L77.4,232.4z M157.3,99c-3.9,2.7-8.1,6.7-8.1,10.8
	c0,4.1,3,5.5,4.9,5.5c9.8,0,4.6-13,7.8-18.5c1.5-1.2,7.5-3.8,9.1-4.4l0.4,0.9c-4,3-6.1,6.4-6.1,9.6c0,3.8,3,6.1,5.9,6.1
	c9.2,0,4.1-14.2,7.4-18.9c3.7-1.4,8.4-2.5,11.3-3.2l0.3,1c-5.5,2.6-8.1,5.6-8.1,10.2c0,3.3,2.5,5.7,6.2,5.7c5.1,0,6.9-6.2,7.9-11.5
	c0.8-4.2,1.3-6.1,2.4-7.3c2.7-0.4,10.4-1.6,13.6-2c0-0.1,0.2,1.1,0.2,1.1c-6.6,2.1-11.5,6.4-11.5,11.8c0,3.5,2.8,6.9,7.5,6.9
	c10.9,0,7.5-15.8,13.8-20.1l7.2-0.2l0.2-2.7c-2.9,0-5.3,0-8.2,0.2c-4.7-1.7-6.8-16.2-18.1-16.2c-3.5,0-6.8,2.7-6.8,6.8
	c0,5.7,5.8,8.9,15.7,8.9v1.2c-4.1,0.3-10.1,1.2-13.8,1.8c-6.5-1.3-10.2-12.7-18.6-12.6c-3.5,0-6.8,2.4-6.8,6.7
	c0,6.5,7.2,7.6,16.3,7.2l0.2,1c-3.7,0.8-9.2,2.3-12.7,3.5c-5.5-0.8-8.8-9.1-15.9-9.1c-3.6,0-6.5,2.4-6.5,5.9c0,5.7,6.7,7.5,15.9,4.8
	l0.4,1.1c-3.4,1.3-8.6,3.5-9.9,4.3c-2.7,0.6-5.6-0.5-7.8-1.7c-3.1-1.8-5.2-2.9-8.3-2.9c-3.4,0-5.8,2.2-5.8,5.3
	c0,2.9,2.7,5.2,7.2,5.2c2.8,0,8.7-2,10.9-3.4L157.3,99z M147.4,137.6c-10,0.7-16,5.9-16,12.4c0,4.5,3.5,7.4,7.4,7.4
	c10.6,0,12-16.5,17.4-18.6c2.5,0,12.8,2.5,16.8,3.5c0,0-0.3,1.2-0.3,1.3c-12.1-0.8-19.9,3.7-19.9,11.4c0,5.1,3.8,8.1,8.4,8.1
	c10.1,0,11-16.2,20.8-18.4c2.5,0.8,15.5,6.1,18.2,7.2l-0.7,1.4c-13.1-5.1-24.3,0.9-24.3,9.3c0,6.3,5.9,11.1,12.6,9.1
	c8.8-2.5,13.8-12.9,23-14.1c3.1,1.3,15.3,11.1,17.4,12.7l-0.7,1.1c-5.6-2.7-19.2-7-25.1-1.9c-9.6,8.2-3.3,22.7,10,20.9
	c10-1.2,16.3-12.5,26.3-9.8c5.5,5.3,13.1,14.2,17.8,21.7l-1.2,1.1c-5.8-4.9-11.7-12.3-22.7-12.3c-7.6,0-14.1,4.4-14.1,13.3
	c0,7.5,7.5,12.6,15.7,12.7c7.6,0.1,13.2-2.7,17.5-2.9c5.2-0.2,8.9,0.4,12.1,1.9c3.4,4.3,9.3,19.6,10.9,25.7l-1.3,0.6
	c-6.8-12.2-13.1-18.3-23.5-18.3c-8.2,0-14.7,5.1-14.7,13.7c0,16.2,23.1,17.2,31.4,17.8c5.1,0.4,9.6,0.8,11.3,3.8
	c0.6,3.5,0.8,6.6,0.8,9.7c-5.3,5.3-8.7,9.5-12,16.5c-9,18.7-5.9,37.6,0,43.4c20.2-29.4,28.9-61,31.8-71.6c-4.1,0-10.3,3.4-16.1,8.5
	c-0.2-3.1-0.4-5.5-0.8-8.5c1-4.5,5.5-9.1,14.1-16.7c8.5-7.6,12.2-15.8,12.2-22.4c0-8.1-5.7-13-12.7-13c-12.2,0-17,17.4-15.5,35.6
	l-1.4,0.2c-2.6-8.4-7.5-20.6-11.8-27.9c0.4-3.4,1.2-6.2,3.7-10.4c1.8-2.8,11-14.3,11-23.9c0-7.4-4.5-14.1-12.9-14.1
	c-7.9,0-13.8,7.1-13.8,15.8c0,6.5,3,13.4,6,19.1l-1.6,0.9c-6-9.4-12.2-16.3-17.9-22.4c-3.7-7.9,5.9-18.7,5.9-29.9
	c0-12.5-15.8-17.8-22.7-7.3c-4.9,7.4,0.4,19.6,6.8,25.9l-1,1.1c-5.2-4.4-14.1-10.9-19-13.9c-4-6.8,1.6-17.7-1-25.6
	c-1.6-5-5.8-7.3-10-7.3c-5.3,0-10.6,3.8-10.6,10.6c0,6.8,4.4,11,12.1,16l-0.7,1.3c-4.1-1.7-15.2-6.6-19-8
	c-5.4-5.9,1.3-25.6-12.8-25.6c-4.9,0-8.7,3.8-8.7,9.2c0,6.6,4.5,10.2,13.4,13.4l-0.4,1.2c-2.2-0.7-10.6-2.8-16.8-3.8
	c-8.6-5.9-5.4-19.3-16.8-19.3c-4.5,0-7.9,4-7.9,7.9c0,5.8,4.3,9.7,15.3,11.3L147.4,137.6z M152.7,346.5c3.5-0.7,17.5-1.3,17.5,6
	c0,3.4-2.7,5.8-5.7,5.8c-7.6,0-11.2-9.8-16.6-10.5c-2.9,0.3-12,0.6-15.7,0.8l0.1,1.2c12.4,2.1,15.5,5.4,15.5,9.1
	c0,2.3-1.9,5.6-6,5.6c-8.8,0-9.1-12.2-16.5-15c-3.9,0-12.6-1-16.5-1.4l-0.2,1.2c6.2,2.3,14.5,5.4,14.5,11.8c0,2.6-2.3,5.9-6,5.9
	c-12.4,0-11.2-16.9-17.6-20c-5.8-1.2-12.7-3.5-17.4-5.1l-0.5,1.3c7.8,3.2,12.6,7.6,12.6,11.8c0,3.4-2.2,5.8-5.4,5.8
	c-11.4,0-9.2-17.7-13.2-21.3c-11.2-4.7-19-9.9-25.1-14.1l1.4-1.6c4.7,3.2,12.6,8.8,23.7,13c6.5-0.4,8.7-12.6,18.2-12.6
	c5.7,0,8.3,3.7,8.3,7.1c0,7.6-10.2,9-18.4,7l-0.6,1.4c4,1.7,12.5,4.2,16.4,5c1.3-0.2,4-0.9,6.4-7.5c1.5-3.9,4.6-7.4,9.2-7.4
	c4.8,0,7.9,2.8,7.9,6.7c0,4.5-5.5,8.2-13.9,8.2l-0.2,1.3c4.3,0.4,11.4,1.2,15.9,1.2c4.1-3.1,3.2-15.8,12.7-15.8
	c4.3,0,6.1,3.1,6.1,5.3c0,5.4-7.2,7.8-11.7,8.8l0.1,1.1c3-0.2,11.9-0.3,15.4-0.9c4.3-3.4,2-15.1,9.8-15.1c3.6,0,5.7,2.5,5.7,5.4
	c0,4.9-5.7,7.6-10.6,8.7L152.7,346.5z M45.3,253.8c3,1.8,7.3,6.3,7.3,10.3c0,2.7-1.4,5.1-4.5,5.1c-1.8,0-4.7-0.9-6.2-5.7
	c-1.3-4.7,0.5-8.8-1-11.4c-3.2-2-7.7-5.4-9.8-7.2l-0.6,0.9c6.5,7.3,5.1,16.4,0,16.4c-3.5,0-5.4-3-5.4-7.2c0-5.2,3-11.3,2-14
	c-2-2-6.7-8-8.9-11.7l-0.7,0.9c3.5,7,3.1,18.6-3.1,18.6c-6.2,0-6-7.6-4.1-13c1.5-4.6,4.8-8.9,4.8-11c-1.1-2.1-4.5-7.8-5.2-11.1
	l1.3-2.1c0.6,3.3,4.1,9.5,5.2,11.2c1.7,0.9,4.5,0.4,7.7-1.2c7.4-3.6,11.9,0.2,11.9,4.5c0,7.8-10.2,9.9-15.9,1.2l-0.7,0.7
	c2,4,6,9.3,8.7,11.7c2.3,0.5,5.7-1.3,8.9-4.4c4.6-4.5,9.6-1.1,9.6,4c0,5-6.1,7.7-13.8,3.5l-0.7,0.9c2.8,2.4,6,5.2,9.4,6.7
	c3.4,0,5.3-2,8-4.7c1.6-1.4,3-2,4.5-2c2.7,0,4.6,2.1,4.6,4.4c0,3.4-3.6,8.4-12.7,4.8L45.3,253.8z M62.1,65.9
	C51.5,72.3,36.8,86,29.6,96.1l2.7,0.5c5.4-8.4,18.7-21.9,31.3-29.9L62.1,65.9z M347.1,214.7c6.1-48.1-25.3-98.8-64.3-120.2v3.9
	c30.1,15.3,62.9,58.6,62.9,105.2c0,4.3-0.3,9-0.5,11.1H347.1z M164.6,49.7c-6.1,6-4.6,14.3,1.5,14.3c6.3,0,6.7-6.8,5.2-10.3
	c-1.1-2.7-0.9-4.6,0.5-5.8c5.6-2.4,17.4-5.2,23.2-5.2l-0.9-1.9c-6.5,0.4-17.7,2.9-24,5.2c-4-0.5-7.1-4.6-14.8-4.6
	c-3,0-6.3,0.9-6.3,3.3c0,3.3,6.3,4.7,14.5,3.8L164.6,49.7z M211.1,42.1c-9.2-4.9-27.8-4.1-29.7,4.9C190.7,44.8,200,42.5,211.1,42.1
	 M309.8,253.1c-0.4,5.9,3.4,11,8.9,11c6.5,0,9.7-6,11-11.3C323.4,253.1,316.3,253.5,309.8,253.1 M329.9,248.7
	c0.3-6.6-3.5-10.3-7.1-10.3c-5.5,0-11,5.3-12.8,10.3C316.2,249.1,324.4,249.1,329.9,248.7 M268.3,334.6
	c-21.4,34.8-65.1,50.7-103.5,50.7c-41.2,0-78.1-12.2-108.4-38.1l1.2-1.2c30.6,25.5,66.6,36.9,107.2,36.9
	c35.9,0,79.1-15.3,100.2-49.9L268.3,334.6z M7.8,132.5C1,147-2,167-0.5,185.8l2.2-1.1c-1.7-13.8,0.2-34.4,7.6-51.9L7.8,132.5z
	 M182.1,50.3c3.8,3,10.2,5.3,18.9,4.5c8.4-0.8,11.8-7.8,11.4-9.7C200.5,45.9,191,48.2,182.1,50.3 M58.3,337.9
	c-12.9-12.7-25.8-36.4-25.8-36.4c5.6,2,12.4,7.2,17,13C56.6,323.4,58.9,333.8,58.3,337.9 M28.9,303.5c-1.1,4.3,0.6,13.7,6.6,21.5
	c6.4,8.1,11.9,12.4,18.7,14.6C54.1,339.6,38.5,323.5,28.9,303.5 M198.7,33.2c9.7,4.6,18.6,5.3,21.8,5.1c-6.4-4.2-14-8.3-23-11.7
	C193.1,26.5,192.7,30.3,198.7,33.2 M225.8,37.3c0.3-1.7,1.6-4.2-7.9-8.4c-4.9-2.2-11.8-3.4-14.6-3.4
	C210.5,28.4,218.5,32.5,225.8,37.3 M246,101.1c15.5,5.2,26.7,3.2,32.9-3.4c-23.3-12.4-49-18.1-54.8-19.3
	C224.8,85.3,230.7,95.9,246,101.1 M259.4,72.2c-23-11-33.9,0.6-33.9,0.6c6,1.3,29.4,6.3,53.9,19.2C273.7,81.8,267.9,76.3,259.4,72.2
	 M304.4,99.8c1.1-2.4,2.8-16.1-13.2-31.8c-4.9-4.9-11.6-7.6-14.6-8C276.8,60,292,69.9,304.4,99.8 M271.9,60.7
	c-3.3,1.2-1.5,18.1,27.8,40C292.6,83.4,282.7,70.1,271.9,60.7 M352.4,224.2c-1.4,10-4.2,17.3-9.6,25.9c2-0.8,6.7-2.8,9.6-11.2
	C354.4,233,353.5,226.6,352.4,224.2 M314.8,322.5c-10.2,12.4-34.8,29.8-50.9,35.9c3.5,1.1,9.6,0,16-2.2
	C305.8,347.4,314.8,326.6,314.8,322.5 M312.2,319.4c0,0-7.9-3.1-32.9,15.8c-10.6,8-15.9,15.2-17.1,19.2
	C279.4,347.6,299.2,332.9,312.2,319.4 M196.9,316.1c-5.3,9-5.5,27.5,11.1,36.5c11.2,6.1,31,3.5,39.9-3.5
	C230.7,338.3,212.6,328.5,196.9,316.1 M251.7,345c3-4.1,8-19.4-1.4-29.7c-12.7-14.4-40-12-49.2-4C216.8,323.3,233.9,334.1,251.7,345
	 M336,236.7c2.8-4.5,4.9-9.8,4.9-15.5c0-9.6-5.4-14.7-11.3-14.1C332.4,213.6,335.6,224.5,336,236.7 M339.6,248.9
	c4.3-7.2,8-17,9.3-26.5C344,226.4,338.6,239.6,339.6,248.9 M335.6,238.7c0,42.6-19.7,70.3-20.9,72l-1.8-0.4
	c10.4-16.5,20.8-43.3,20.2-70.4L335.6,238.7z M271.4,331.7c7.9,0,24.1-11.5,32.7-30.8c8.8-19.6,5.7-33.4-0.5-41.4
	C300.7,270,291.4,302.3,271.4,331.7 M332,237.6c-0.5-11.5-3.7-23.1-6.6-29.2c-3.9,4.3-5.1,9-5.1,13.5
	C320.3,229.1,324.4,236.2,332,237.6 M-7.9,216.6c2.3,36.4,17.6,62.6,36.3,85.2l1.6-2.3c-17.9-20.9-34-47.7-36.1-82.9H-7.9z
	 M-7.9,172.3c-9.2,9.4-9.6,27.7-6.9,37.4C-14.1,197.2-11.7,185.4-7.9,172.3 M8.7,224.7c-1.4-6.8-5.1-22.5-5.9-37.6
	c6,2.2,10,15.4,9.4,26C11.9,217.9,10.6,222.1,8.7,224.7 M3.5,173.8c8.7-1.4,19.8,0.2,21.8,0.6c-2,4.7-6.2,12.6-12.7,12.6
	C6.2,186.9,3.2,178.7,3.5,173.8 M-4.6,174.4c2,14.1,0.2,35.3-6.6,36.8C-10.6,200.1-8.1,184.6-4.6,174.4 M-0.5,187.8
	c0.7,15.8,4.3,30.7,5.9,37.5c-1.8-0.4-3.8-2.4-6-7C-4.9,208.4-3,194.2-0.5,187.8 M25.7,170.2c0.8-4.8-1-12.1-8.6-13.2
	c-7-0.6-11.4,7.5-13.4,12.8C10.8,168.4,21.4,169.4,25.7,170.2 M110.8,40.2c-10.6,1.3-25.5,6.1-41.4,14.9
	C84.8,40.1,110.8,34.5,110.8,40.2 M98.4,57.6c31-23.1,60.7-27,87.6-26.7v1.6c-31-0.8-60.5,7.6-84.7,26.6L98.4,57.6z M115.3,53.4
	c4.7,11.6,9.9,22,15.3,32.6c-8.3,1.4-20.7-0.2-24.3-11.9C103.5,65.3,110.5,56.5,115.3,53.4 M119.7,51.4c0,0,16.8-5.2,24.2,7.4
	c5.3,8.4-2.1,22.3-8.6,25.5C130,73.5,124.7,62.7,119.7,51.4 M68.6,59.7c21.2-12.6,41.6-15.5,41.4-15.3
	C96.5,55.6,74.3,62.4,68.6,59.7 M50,104.1c2.4-3.5,3.8-8.3,3.8-11.5c0-4.1-3.5-4.4-5-4.4c-2.7,0-5.8,1.2-7.5,2.7
	C43.8,96,46.9,100.4,50,104.1 M38.7,93.5c-2.7,2.7-4.6,6.7-4.6,10.4c0,8.1,11.6,4.8,13.1,3.3C44,103.4,40.9,99.3,38.7,93.5
	 M61.2,100.3C69.4,89,84.6,72.6,99.5,61.5c1.6,2.8,2.7,13.1-7.9,24.5C82.5,95.9,72.4,101.3,61.2,100.3 M57.5,97.4
	c-1.2-3.1-2.5-11.6,8.4-22.7c13.2-13.4,25.9-15.5,29.7-15.9C81.4,68.8,65.9,85,57.5,97.4 M268.2,110.3c-10.8,7.6-11.4,23.5-4.1,34.2
	c9-10.4,18.5-21.2,27.5-33.1C289.7,109.9,277.2,103.9,268.2,110.3 M269,149.1c12.9,4.6,24.5,2.7,29.6-6.7c6.3-11.4,1.2-22-2.3-26.9
	C288.2,127.1,278.6,138.5,269,149.1 M229.7,47.9c-2.6,5.5-4.6,10.7-6.6,16.2c3.4,0.9,9.8,1.5,12.8-3.9
	C237.8,56.6,237.5,50.9,229.7,47.9 M225.8,46.7c-0.8-0.2-10-2.1-12.7,3.6c-1.3,2.9-0.9,9,5.6,12.1C220.5,57.2,223.5,50.9,225.8,46.7
	 M11.4,127.4c2.3-0.6,8.2-2.6,13.5-10c5.9-7.7,6.4-14.2,5.8-18.1C24,106.7,13.7,122.9,11.4,127.4 M27.3,97.9
	c-2.8,0.6-7.1,2.2-12,7.7c-5.7,6.5-7.6,14.4-7.2,20.5C9.7,121.8,19,106.4,27.3,97.9 M14.3,292.1c-8.9,13.2-1.6,28.8,4.4,33.3
	C14,314.1,13.3,301,14.3,292.1 M17.7,292.2c6.6,7.8,11.4,27.6,5,33.2C18.3,315.3,17.7,303.8,17.7,292.2 M262.3,57.2
	c-15.5-10-35.4-13.8-48-13.8l-1.6-2c15,0,37.9,5.6,50.5,14.6L262.3,57.2z M22.9,285.2c6.9-1,19.8-5.3,25.5-7.5
	c-4.5-6.7-11.7-9.2-16.8-9.2C24.9,268.5,20.7,276,22.9,285.2 M25,289.1c2.1,4.9,8.2,8.1,13.8,8.1c7.4,0,13.8-5.2,11.6-15.4
	C46,283.5,32.4,287.8,25,289.1"/>
</svg>
